<svg xmlns="http://www.w3.org/2000/svg" xmlns:xlink="http://www.w3.org/1999/xlink" width="265" height="84">
  <title>EMPath: Economic Mobility Pathways</title>
  <defs>
    <circle id="a" cx="42" cy="42" r="42"/>
    <path id="c" d="M15 52.14l23.23-23.26L31.39.17 1.12 10.36A42 42 0 0 0 15 52.14z"/>
  </defs>
  <g fill="none" fill-rule="evenodd">
    <g fill="#FFF" fill-rule="nonzero">
      <path d="M108.93 23.66c0-.845.685-1.53 1.53-1.53H126c.81 0 1.25.4 1.25 1.13v.24c0 .76-.44 1.13-1.25 1.13h-14.34v9h11.51c.8 0 1.25.41 1.25 1.13v.16c0 .77-.45 1.13-1.25 1.13h-11.51v9.65h14.61c.8 0 1.24.36 1.24 1.09V47a1.09 1.09 0 0 1-1.24 1.17h-15.81a1.53 1.53 0 0 1-1.53-1.53V23.66zM132.91 23.7a1.79 1.79 0 0 1 2-1.73h.64c1.41 0 1.77.64 2.37 2.05l6.84 15.17L151.61 24c.6-1.41 1-2.05 2.37-2.05h.57a1.79 1.79 0 0 1 2 1.73v23.39c0 .84-.37 1.25-1.17 1.25H155c-.77 0-1.13-.41-1.13-1.25v-22L147.06 40a2.34 2.34 0 0 1-2.37 1.73 2.31 2.31 0 0 1-2.37-1.73l-6.8-14.84v22c0 .84-.32 1.25-1.13 1.25H134c-.76 0-1.08-.41-1.08-1.25l-.01-23.46zM163.52 23.66c0-.845.685-1.53 1.53-1.53h6.68c6.07 0 9.57 2.86 9.57 7.89 0 5.18-3.38 8-9.9 8h-5.14v9a1.16 1.16 0 0 1-1.21 1.25h-.36c-.77 0-1.17-.41-1.17-1.25V23.66zm8.13 12c4.54 0 6.83-1.93 6.83-5.51s-2.29-5.51-6.71-5.51h-5.51v11l5.39.02zM197.87 36.73h.41v-.68c0-3.3-1.93-5.11-5.39-5.11a6.58 6.58 0 0 0-6.12 3.54 1.54 1.54 0 0 1-1.49-1.48c0-1.37 2.74-4.42 7.81-4.42 4.86 0 7.76 2.81 7.76 7.44V48c0 .09-.4.29-.88.29-.89 0-1.65-.45-1.65-2.54v-.72a8.5 8.5 0 0 1-7.16 3.54c-4.19 0-6.6-2.13-6.6-5.35 0-4.44 4.44-6.29 13.31-6.49zm-6.47 9.7c3.94 0 6.88-2.46 6.88-5.88v-1.77h-1.13c-6.56.25-9.93 1.41-9.93 4.43 0 1.97 1.56 3.22 4.18 3.22zM207.69 31.34h-1.77c-1 0-1.24-.36-1.24-1v-.24c0-.69.28-1 1.24-1h1.77v-3.43c0-1 .48-1.25 1.17-1.25h.28c.68 0 1.13.29 1.13 1.25V29h5.1c1 0 1.25.36 1.25 1v.24c0 .68-.28 1-1.25 1h-5.1v10.9c0 2.82.72 4.15 2.85 4.15a3.69 3.69 0 0 0 3-1.41c.08-.08.88.28.88 1.28s-1.4 2.38-3.94 2.38c-3.74 0-5.35-2.13-5.35-6.12l-.02-11.08zM221.21 21.05c0-.08.4-.29.88-.29.89 0 1.73.45 1.73 2.54v8.77a7.44 7.44 0 0 1 6.48-3.54c5.07 0 7.6 3.38 7.6 8.44v10.1c0 1-.48 1.25-1.17 1.25h-.28c-.68 0-1.16-.29-1.16-1.25v-9.94c0-3.86-1.93-6.15-5.15-6.15-3.78 0-6.32 2.57-6.32 6.56v9.53c0 1-.48 1.25-1.16 1.25h-.28c-.69 0-1.17-.29-1.17-1.25V21.05z"/>
    </g>
    <g fill="#9AA5AF" fill-rule="nonzero">
      <path d="M109.06 58.57h5.37v.94h-4.3v2.6h4.07v1h-4.07v2.86h4.52l-.17.94h-5.42zM121.1 64.84a2.66 2.66 0 0 1-.79 1.62 2.55 2.55 0 0 1-1.81.6 3.22 3.22 0 0 1-1.21-.22 2.31 2.31 0 0 1-.89-.64 2.81 2.81 0 0 1-.53-1 4.48 4.48 0 0 1-.18-1.32 3.87 3.87 0 0 1 .2-1.31c.116-.37.31-.712.57-1a2.6 2.6 0 0 1 .9-.66 3.11 3.11 0 0 1 1.21-.23 2.21 2.21 0 0 1 2.43 2l-1 .19a2.64 2.64 0 0 0-.16-.54 1.17 1.17 0 0 0-.27-.42 1.19 1.19 0 0 0-.42-.28 1.57 1.57 0 0 0-.6-.1 1.74 1.74 0 0 0-.82.18 1.55 1.55 0 0 0-.55.5 2.12 2.12 0 0 0-.31.75 3.87 3.87 0 0 0-.1.92 4.56 4.56 0 0 0 .09.92c.054.266.156.52.3.75.14.209.329.38.55.5.255.136.541.202.83.19a1.45 1.45 0 0 0 1.08-.37c.25-.28.411-.628.46-1l1.02-.03zM125.2 67.06a3.32 3.32 0 0 1-1.22-.22 2.56 2.56 0 0 1-.91-.63 2.88 2.88 0 0 1-.57-1 4.27 4.27 0 0 1-.19-1.33 3.89 3.89 0 0 1 .21-1.32 2.71 2.71 0 0 1 .59-1 2.5 2.5 0 0 1 .92-.64 3.11 3.11 0 0 1 1.21-.23 3.3 3.3 0 0 1 1.21.22c.347.144.657.362.91.64.26.288.455.63.57 1 .142.425.21.872.2 1.32.005.451-.063.9-.2 1.33a2.94 2.94 0 0 1-.58 1 2.56 2.56 0 0 1-.93.65 3.16 3.16 0 0 1-1.22.21zm0-.84a1.8 1.8 0 0 0 .84-.18c.23-.11.428-.276.58-.48a2.14 2.14 0 0 0 .33-.75 4.61 4.61 0 0 0 0-1.91 2 2 0 0 0-.33-.73 1.71 1.71 0 0 0-.58-.49 2.14 2.14 0 0 0-1.67 0 1.59 1.59 0 0 0-.57.49 2 2 0 0 0-.33.73 4.1 4.1 0 0 0-.1 1 4 4 0 0 0 .1 1c.06.269.173.524.33.75.14.21.338.377.57.48.269.097.557.128.84.09h-.01zM129.73 60.86h1v.92a2.6 2.6 0 0 1 2.13-1.11 1.94 1.94 0 0 1 1.52.56 2.4 2.4 0 0 1 .49 1.64v4h-1v-3.8a1.8 1.8 0 0 0-.3-1.18 1.17 1.17 0 0 0-.93-.35c-.229 0-.456.04-.67.12a1.72 1.72 0 0 0-.6.37 2 2 0 0 0-.44.54 1.6 1.6 0 0 0-.15.74v3.56h-1l-.05-6.01zM139.28 67.06a3.36 3.36 0 0 1-1.22-.22 2.52 2.52 0 0 1-.9-.63 2.73 2.73 0 0 1-.57-1 4 4 0 0 1-.2-1.33 3.89 3.89 0 0 1 .21-1.32 3 3 0 0 1 .59-1c.258-.28.576-.5.93-.64a3.09 3.09 0 0 1 1.2-.23 3.3 3.3 0 0 1 1.21.22c.348.141.66.36.91.64a2.7 2.7 0 0 1 .58 1c.134.427.198.873.19 1.32a4 4 0 0 1-.2 1.33 2.79 2.79 0 0 1-.58 1 2.52 2.52 0 0 1-.92.65 3.25 3.25 0 0 1-1.23.21zm0-.84a1.78 1.78 0 0 0 .83-.18 1.43 1.43 0 0 0 .58-.48 2.14 2.14 0 0 0 .33-.75 4.2 4.2 0 0 0 0-1.91 2 2 0 0 0-.33-.73 1.54 1.54 0 0 0-.58-.49 2.14 2.14 0 0 0-1.67 0 1.77 1.77 0 0 0-.57.49 2 2 0 0 0-.33.73 4.1 4.1 0 0 0-.1 1 4 4 0 0 0 .1 1c.06.269.173.524.33.75.146.206.342.372.57.48.275.1.57.13.86.09h-.02zM143.81 60.86h1v.92a2.76 2.76 0 0 1 .89-.83 2 2 0 0 1 1-.28 1.88 1.88 0 0 1 1.09.29c.285.21.499.504.61.84a2.83 2.83 0 0 1 .93-.84 2.31 2.31 0 0 1 1.12-.29c.5-.033.991.14 1.36.48.365.434.542.995.49 1.56v4.16h-1v-3.93a3.16 3.16 0 0 0-.07-.68 1.08 1.08 0 0 0-.21-.43.67.67 0 0 0-.33-.22 1.52 1.52 0 0 0-.45-.07 1.83 1.83 0 0 0-1.13.42 1.5 1.5 0 0 0-.38.48 1.24 1.24 0 0 0-.16.64v3.79h-1V63a1.7 1.7 0 0 0-.27-1.1 1 1 0 0 0-.79-.31 1.64 1.64 0 0 0-1.11.49 2.77 2.77 0 0 0-.38.48 1.45 1.45 0 0 0-.18.78v3.58h-1l-.03-6.06zM154 58.57h1.08v1.17H154v-1.17zm0 2.29h1v6h-1v-6zM162.11 64.84a2.6 2.6 0 0 1-.79 1.62 2.53 2.53 0 0 1-1.8.6 3.32 3.32 0 0 1-1.22-.22 2.36 2.36 0 0 1-.88-.64 2.68 2.68 0 0 1-.54-1 4.48 4.48 0 0 1-.18-1.32 4.14 4.14 0 0 1 .2-1.31 2.69 2.69 0 0 1 1.48-1.66 3.11 3.11 0 0 1 1.21-.23 2.23 2.23 0 0 1 2.43 2l-1 .19a2.64 2.64 0 0 0-.16-.54 1.51 1.51 0 0 0-.27-.42 1.15 1.15 0 0 0-.43-.28 1.51 1.51 0 0 0-.6-.1 1.7 1.7 0 0 0-.81.18 1.47 1.47 0 0 0-.55.5 2.13 2.13 0 0 0-.32.75 4.47 4.47 0 0 0-.1.92c.002.31.035.618.1.92.054.266.156.52.3.75.137.211.327.383.55.5.252.135.535.2.82.19a1.48 1.48 0 0 0 1.09-.37c.25-.28.411-.628.46-1l1.01-.03zM166.6 58.57h1.33l2.67 7 2.72-7h1.28v8.3h-1v-6.55l-2.6 6.55h-.87l-2.56-6.52v6.52h-1zM179.23 67.06a3.32 3.32 0 0 1-1.22-.22 2.56 2.56 0 0 1-.91-.63 2.73 2.73 0 0 1-.57-1 4.27 4.27 0 0 1-.2-1.33 3.89 3.89 0 0 1 .21-1.32c.13-.37.334-.711.6-1a2.5 2.5 0 0 1 .92-.64 3.11 3.11 0 0 1 1.21-.23 3.34 3.34 0 0 1 1.21.22c.347.144.657.362.91.64.26.288.455.63.57 1 .142.425.21.872.2 1.32.005.451-.063.9-.2 1.33a2.94 2.94 0 0 1-.58 1 2.56 2.56 0 0 1-.93.65 3.16 3.16 0 0 1-1.22.21zm0-.84a1.8 1.8 0 0 0 .84-.18c.23-.11.428-.276.58-.48a2.14 2.14 0 0 0 .33-.75 4.61 4.61 0 0 0 0-1.91 2 2 0 0 0-.33-.73 1.71 1.71 0 0 0-.58-.49 2.14 2.14 0 0 0-1.67 0 1.59 1.59 0 0 0-.57.49 2 2 0 0 0-.33.73 4.08 4.08 0 0 0-.11 1c-.006.337.03.673.11 1 .062.267.17.52.32.75.146.206.342.372.57.48.273.096.564.126.85.09h-.01zM183.75 58.57h1v3.13a2.58 2.58 0 0 1 .86-.76 2.33 2.33 0 0 1 1.15-.27 2.63 2.63 0 0 1 1.12.23c.315.154.589.38.8.66.226.298.39.638.48 1a5 5 0 0 1 .16 1.27 4.68 4.68 0 0 1-.19 1.35 2.86 2.86 0 0 1-.53 1 2.45 2.45 0 0 1-.85.65 2.65 2.65 0 0 1-1.11.23 2.6 2.6 0 0 1-1-.22 2.27 2.27 0 0 1-.89-.74v.77h-1v-8.3zm1 5.46a3.26 3.26 0 0 0 .14 1c.077.247.199.478.36.68.152.174.344.307.56.39.228.081.468.122.71.12.236.004.471-.04.69-.13a1.32 1.32 0 0 0 .56-.41 2.22 2.22 0 0 0 .36-.74c.1-.358.146-.729.14-1.1a3.57 3.57 0 0 0-.15-1.12 2.07 2.07 0 0 0-.38-.71 1.22 1.22 0 0 0-.53-.38 1.58 1.58 0 0 0-.61-.12 2 2 0 0 0-.73.13 1.67 1.67 0 0 0-.59.4 1.92 1.92 0 0 0-.39.66 2.93 2.93 0 0 0-.14.93v.4zM190.92 58.57H192v1.17h-1.08v-1.17zm0 2.29h1v6h-1v-6zM193.8 58.57h1v8.3h-1zM196.62 58.57h1.08v1.17h-1.08v-1.17zm0 2.29h1v6h-1v-6zM199.83 61.66h-.93v-.8h.93v-1.64h1v1.64h1.59v.8h-1.59v3.52c-.016.251.05.5.19.71a.72.72 0 0 0 .61.27 3 3 0 0 0 .45 0l.35-.1.18.78a3.8 3.8 0 0 1-.51.14 4 4 0 0 1-.65 0 1.91 1.91 0 0 1-.82-.15 1.24 1.24 0 0 1-.5-.43 1.73 1.73 0 0 1-.25-.67 5.31 5.31 0 0 1-.06-.83l.01-3.24zM204 68.15c.208.077.428.118.65.12a.82.82 0 0 0 .58-.2 1.79 1.79 0 0 0 .4-.71l.25-.64-2.55-5.86h1.17l1.9 4.72 1.73-4.72h1.12l-2.63 6.58a6.167 6.167 0 0 1-.33.72 2 2 0 0 1-.36.52 1.32 1.32 0 0 1-.47.34 1.84 1.84 0 0 1-.67.11 3.75 3.75 0 0 1-.5 0 2 2 0 0 1-.48-.13l.19-.85zM213.26 58.57H216a5 5 0 0 1 1.51.19c.353.107.678.291.95.54a1.9 1.9 0 0 1 .47.78c.098.324.145.661.14 1 0 .338-.047.675-.14 1a2.09 2.09 0 0 1-.49.84 2.41 2.41 0 0 1-.94.57 4.59 4.59 0 0 1-1.5.21h-1.73v3.22h-1.05l.04-8.35zm2.74 4.17a3.9 3.9 0 0 0 1-.11 1.41 1.41 0 0 0 .62-.34 1.24 1.24 0 0 0 .31-.53 2.5 2.5 0 0 0 .09-.69 2.11 2.11 0 0 0-.1-.7 1.06 1.06 0 0 0-.32-.5 1.71 1.71 0 0 0-.62-.3 4.44 4.44 0 0 0-1-.1h-1.7v3.27H216zM224 66a2.94 2.94 0 0 1-.83.68A2.47 2.47 0 0 1 222 67a3.16 3.16 0 0 1-.84-.11 1.75 1.75 0 0 1-.65-.34 1.56 1.56 0 0 1-.42-.56 2 2 0 0 1-.15-.79 1.69 1.69 0 0 1 .26-1 1.81 1.81 0 0 1 .7-.61 3.52 3.52 0 0 1 1-.31 10 10 0 0 1 1.13-.12h1v-.26a1.59 1.59 0 0 0-.32-1.1 1.45 1.45 0 0 0-1.06-.34 1.84 1.84 0 0 0-1.06.24 1.09 1.09 0 0 0-.44.66l-.92-.11a1.72 1.72 0 0 1 .78-1.2 3.86 3.86 0 0 1 2.77-.22c.277.087.528.241.73.45.194.2.332.449.4.72.087.326.128.663.12 1v3.91h-1L224 66zm0-2.18h-1a6.36 6.36 0 0 0-1 .12 1.82 1.82 0 0 0-.64.25.85.85 0 0 0-.34.39 1.25 1.25 0 0 0-.1.53 1 1 0 0 0 .28.73c.253.205.576.302.9.27a2 2 0 0 0 1.39-.44 1.54 1.54 0 0 0 .5-1.21l.01-.64zM227.12 61.66h-.93v-.8h.93v-1.64h1v1.64h1.59v.8h-1.59v3.52a1.15 1.15 0 0 0 .2.71.69.69 0 0 0 .6.27 3 3 0 0 0 .45 0l.36-.1.17.78a3.43 3.43 0 0 1-.51.14 3.87 3.87 0 0 1-.64 0 2 2 0 0 1-.83-.15 1.31 1.31 0 0 1-.5-.43 1.91 1.91 0 0 1-.25-.67 5.31 5.31 0 0 1-.06-.83l.01-3.24zM231 58.57h1v3.18a2.73 2.73 0 0 1 1-.82 2.56 2.56 0 0 1 1.12-.26 1.94 1.94 0 0 1 1.52.56 2.4 2.4 0 0 1 .49 1.64v4h-1v-3.8a1.8 1.8 0 0 0-.3-1.18 1.13 1.13 0 0 0-.92-.35 2 2 0 0 0-.67.12 1.72 1.72 0 0 0-.6.37 2 2 0 0 0-.44.54 1.6 1.6 0 0 0-.15.74v3.56h-1l-.05-8.3zM237.21 60.86h1.11l1.21 4.79 1.38-4.76h1l1.35 4.76 1.2-4.79h1.07l-1.76 6h-1.06l-1.35-4.79-1.36 4.8h-1zM250.4 66a2.81 2.81 0 0 1-.83.68 2.45 2.45 0 0 1-1.24.29 3.09 3.09 0 0 1-.83-.11 1.75 1.75 0 0 1-.65-.34 1.59 1.59 0 0 1-.43-.56 2 2 0 0 1-.15-.79 1.77 1.77 0 0 1 .26-1 1.88 1.88 0 0 1 .7-.61 3.63 3.63 0 0 1 1-.31c.374-.06.751-.1 1.13-.12h1v-.23a1.54 1.54 0 0 0-.33-1.1 1.45 1.45 0 0 0-1.06-.34 1.81 1.81 0 0 0-1.05.24 1.1 1.1 0 0 0-.45.66l-.92-.11a1.72 1.72 0 0 1 .78-1.2 3.89 3.89 0 0 1 2.78-.22c.275.084.524.24.72.45a1.7 1.7 0 0 1 .41.72c.087.326.128.663.12 1v3.91h-1l.04-.91zm0-2.18h-1a6.22 6.22 0 0 0-1 .12 1.88 1.88 0 0 0-.65.25.78.78 0 0 0-.33.39 1.25 1.25 0 0 0-.1.53 1 1 0 0 0 .27.73c.253.205.576.302.9.27a2 2 0 0 0 1.4-.44 1.54 1.54 0 0 0 .5-1.21l.01-.64zM253 68.15c.208.08.428.12.65.12a.79.79 0 0 0 .57-.2 1.79 1.79 0 0 0 .4-.71l.25-.64-2.55-5.86h1.18l1.89 4.72 1.73-4.72h1.12l-2.63 6.58c-.11.27-.22.51-.32.72a2.64 2.64 0 0 1-.36.52 1.41 1.41 0 0 1-.47.34 1.92 1.92 0 0 1-.67.11 3.49 3.49 0 0 1-.5 0 2.11 2.11 0 0 1-.49-.13l.2-.85zM260 65.11c.032.36.227.684.53.88a2.27 2.27 0 0 0 1.16.25 1.8 1.8 0 0 0 1.09-.26.85.85 0 0 0 .32-.69 1.66 1.66 0 0 0 0-.33.61.61 0 0 0-.16-.28 1.26 1.26 0 0 0-.33-.22 2.39 2.39 0 0 0-.54-.15l-.77-.11a7.54 7.54 0 0 1-.9-.21 2.35 2.35 0 0 1-.65-.34 1.22 1.22 0 0 1-.4-.5 1.67 1.67 0 0 1-.13-.71 1.47 1.47 0 0 1 .18-.74 1.67 1.67 0 0 1 .5-.56 2.6 2.6 0 0 1 .75-.35c.31-.082.63-.122.95-.12a3.74 3.74 0 0 1 1.09.13 2 2 0 0 1 .71.35c.183.139.334.316.44.52.097.205.174.42.23.64l-.92.15a2.43 2.43 0 0 0-.19-.43 1 1 0 0 0-.28-.31 1.16 1.16 0 0 0-.42-.18 2.65 2.65 0 0 0-.62-.07 2.75 2.75 0 0 0-.7.08 1.35 1.35 0 0 0-.45.2.81.81 0 0 0-.24.29.88.88 0 0 0-.07.33c0 .112.017.223.05.33.034.1.092.19.17.26.108.077.226.141.35.19a4 4 0 0 0 .57.14l.88.14c.55.05 1.075.26 1.51.6.489.547.61 1.33.31 2a1.51 1.51 0 0 1-.45.56 2.25 2.25 0 0 1-.76.37 3.68 3.68 0 0 1-1.06.14 4.6 4.6 0 0 1-1-.11 2.73 2.73 0 0 1-.84-.33 1.75 1.75 0 0 1-.58-.6 2.07 2.07 0 0 1-.25-.91l.92-.04z"/>
    </g>
    <circle cx="42" cy="42" r="42" fill="#4FA492" fill-rule="nonzero"/>
    <mask id="b" fill="#fff">
      <use xlink:href="#a"/>
    </mask>
    <g stroke="#FFF" stroke-linecap="round" stroke-linejoin="round" stroke-width="1.85" mask="url(#b)">
      <path d="M58.81 19.27v63.24M58.81 30.32L6.15 82.98M58.81 42.26l-46.6 46.6M58.81 54.2L24.47 88.54M58.81 30.32l34.35 34.34M58.81 42.26L93.16 76.6M58.81 54.2l34.35 34.34M58.81 65.79l-34.34 34.34M58.81 65.79l34.35 34.34"/>
    </g>
    <g transform="translate(0 22)">
      <mask id="d" fill="#fff">
        <use xlink:href="#c"/>
      </mask>
      <g stroke="#FFF" stroke-linecap="round" stroke-linejoin="round" stroke-width="1.85" mask="url(#d)">
        <path d="M22.58 9.61v63.24M22.58 20.65l-52.66 52.66M22.58 32.59l-46.6 46.61M22.58 44.53l-34.34 34.34M22.58 20.65L62.5 60.57M22.58 32.59l34.34 34.34M22.58 44.53l34.34 34.34M22.58 56.13l-34.34 34.34M22.58 56.13l34.34 34.34"/>
      </g>
    </g>
  </g>
</svg>